<svg width="132" height="132" viewBox="0 0 132 132" fill="none" xmlns="http://www.w3.org/2000/svg">
<mask id="mask0_10_1357" style="mask-type:luminance" maskUnits="userSpaceOnUse" x="0" y="0" width="133" height="133">
<path d="M0 1.52588e-05H132.001V132.009H0V1.52588e-05Z" fill="white"/>
</mask>
<g mask="url(#mask0_10_1357)">
<path fill-rule="evenodd" clip-rule="evenodd" d="M65.996 2.38419e-06C29.5439 2.38419e-06 -0.00793457 29.5502 -0.00793457 66.004C-0.00793457 102.458 29.5439 132.009 65.996 132.009C102.451 132.009 132.001 102.458 132.001 66.004C132.001 29.5502 102.451 2.38419e-06 65.996 2.38419e-06Z" fill="#919031"/>
<path fill-rule="evenodd" clip-rule="evenodd" d="M65.9962 2.1841C101.286 2.1841 129.895 30.7576 129.895 66.0042C129.895 101.251 101.286 129.824 65.9962 129.824C30.7082 129.824 2.09982 101.251 2.09982 66.0042C2.09982 30.7576 30.7082 2.1841 65.9962 2.1841Z" fill="#2F2F32"/>
<path fill-rule="evenodd" clip-rule="evenodd" d="M63.5752 9.57536L65.4556 2.65892L68.247 9.75627L71.4627 3.084L73.2823 10.0613L77.4073 3.50826L78.4992 11.0923L83.0493 5.08526L83.2911 12.4868L88.3888 6.78396L87.9028 14.308L93.484 9.15028L92.5738 16.4293L98.6409 11.7592L96.8822 18.9782L103.675 14.914L100.825 22.0722L107.801 18.2505L104.586 25.5912L111.926 22.6173L108.105 29.1103L115.506 26.8048L111.259 33.1737L118.903 31.5967L114.112 36.8153L121.513 35.9667L116.539 41.427L124.152 41.3053L118.328 46.3698L126.093 46.7048L120.088 50.9807L127.611 51.8317L121.151 56.0776L128.614 57.5037L121.636 61.1729L128.703 63.3583L121.879 66.299L129.008 69.5463L121.607 71.3082L128.703 75.1283L121.181 76.1601L127.673 80.7103L119.787 81.2554L126.096 86.1714L118.147 86.1097L123.549 90.9632H116.451L121.334 96.5144L114.266 95.4517L118.392 101.064L111.416 99.1825L115.298 105.976L108.504 103.431L111.417 109.738L105.107 107.434L107.292 113.5L101.711 110.467L102.923 117.443L97.3422 113.623L98.3732 120.113L92.8521 115.867L93.0955 122.599L88.4245 117.93L87.9385 125.026L83.6918 119.933L82.4782 126.847L78.7174 121.266L76.8987 128.246L73.6222 122.301L71.195 128.607L68.4044 122.782L65.6138 128.971L63.5509 122.905L60.5786 128.974L58.5157 121.753L54.5123 128.308L53.723 121.025L49.1729 126.97L48.8086 119.265L43.835 125.274L43.9559 117.627L38.739 123.03L39.4058 115.87L33.5821 120.116L34.7348 113.199L28.8494 117.022L31.0941 109.984L24.6027 113.382L27.0907 106.891L20.3568 109.439L23.5108 103.372L16.7168 105.313L20.5385 99.3699L13.1369 100.644L17.3845 95.6067L10.6514 95.8508L15.3215 90.754H8.04167L13.5628 86.2639L6.28133 85.4762L12.3492 81.2303L4.76597 80.1984L10.5289 76.3167L3.37068 74.3755L10.0438 71.1598L3.24981 68.5501L9.92208 66.0045L3.24981 63.2723L9.92208 61.0893L3.18896 57.3277L10.3472 56.1141L4.15919 51.8682L11.4391 50.7763L5.97875 46.2878L13.2611 46.0445L7.67906 40.9476L14.9581 41.4327L10.3472 35.7907L17.3244 36.9434L13.1994 31.4856L19.7508 32.6383L16.2334 26.7529L23.269 28.815L20.2359 22.5054L27.1523 25.1751L24.1184 18.3195L30.6706 21.6568L28.7902 14.8004L34.5531 18.6829L33.522 11.7089L38.6789 16.1965L38.799 8.97749L43.3499 14.1336L43.8951 6.73448L48.3243 12.4966L48.992 5.09581L53.3587 10.3119L54.8157 3.69971L58.2139 9.52425L60.3977 3.03289C60.3977 3.03289 63.4909 9.46341 63.5752 9.57536Z" fill="white"/>
<path fill-rule="evenodd" clip-rule="evenodd" d="M65.894 12.9732C95.1522 12.9732 118.871 36.7094 118.871 65.9895C118.871 95.268 95.1522 119.007 65.894 119.007C36.6374 119.007 12.9166 95.268 12.9166 65.9895C12.9166 36.7094 36.6374 12.9732 65.894 12.9732Z" fill="#919031"/>
<path d="M65.894 17.5651C39.2147 17.5651 17.5089 39.2887 17.5089 65.99C17.5089 92.6912 39.2147 114.415 65.894 114.415C92.5734 114.415 114.278 92.6912 114.278 65.99C114.278 39.2887 92.5734 17.5651 65.894 17.5651ZM65.894 123.599C34.1503 123.599 8.32431 97.7565 8.32431 65.99C8.32431 34.2243 34.1503 8.38052 65.894 8.38052C97.6378 8.38052 123.463 34.2243 123.463 65.99C123.463 97.7565 97.6378 123.599 65.894 123.599Z" fill="#2F2F32"/>
<path fill-rule="evenodd" clip-rule="evenodd" d="M66.0074 16.7757C93.0591 16.7757 114.989 38.7224 114.989 65.7936C114.989 92.8656 93.0591 114.81 66.0074 114.81C38.9573 114.81 17.0276 92.8656 17.0276 65.7936C17.0276 38.7224 38.9573 16.7757 66.0074 16.7757Z" fill="#2F2F32"/>
<path fill-rule="evenodd" clip-rule="evenodd" d="M17.438 66.1088C17.438 66.1088 53.757 64.8887 68.0815 64.7386C68.0815 64.7386 107.776 65.347 115.041 65.9554C82.1959 67.547 17.305 66.7521 17.438 66.1088Z" fill="#919031"/>
<path fill-rule="evenodd" clip-rule="evenodd" d="M42.6555 54.6439L58.7752 58.9093L66.313 65.481L55.3032 63.9178L42.6555 54.6439Z" fill="#919031"/>
<path fill-rule="evenodd" clip-rule="evenodd" d="M59.6419 53.6996L65.0463 63.8431L58.8623 58.2927L57.2602 57.7306L48.1599 43.2373C48.1599 43.2373 59.3937 53.552 59.6419 53.6996Z" fill="#919031"/>
<path fill-rule="evenodd" clip-rule="evenodd" d="M66.6142 65.3688L66.765 55.6229L56.8211 37.6065L59.9816 53.0927C59.9695 53.018 66.4187 65.3193 66.6142 65.3688Z" fill="#919031"/>
<path fill-rule="evenodd" clip-rule="evenodd" d="M64.232 49.661L66.9106 55.3898L69.539 51.1982L66.4141 30.6671C66.4141 30.6671 64.1338 49.562 64.232 49.661Z" fill="#919031"/>
<path fill-rule="evenodd" clip-rule="evenodd" d="M67.1829 55.5882L67.0848 62.705L74.3492 52.0911L77.3499 37.2133L70.4797 51.4875L67.1829 55.5882Z" fill="#919031"/>
<path fill-rule="evenodd" clip-rule="evenodd" d="M66.8843 64.1948L75.9091 57.2994L84.9348 42.373L74.8197 52.3891C74.8197 52.3891 66.8332 64.1948 66.8843 64.1948Z" fill="#919031"/>
<path fill-rule="evenodd" clip-rule="evenodd" d="M66.4105 65.3102L75.3396 58.2688L91.2589 53.5824L77.074 63.3535C77.074 63.3535 66.3132 65.3605 66.4105 65.3102Z" fill="#919031"/>
<path fill-rule="evenodd" clip-rule="evenodd" d="M90.6631 57.5006L79.2063 65.2388L76.1804 65.1885L90.6631 57.5006Z" fill="#919031"/>
<path fill-rule="evenodd" clip-rule="evenodd" d="M41.018 57.8492L52.3508 65.4844L55.624 65.5355L41.018 57.8492Z" fill="#919031"/>
<path fill-rule="evenodd" clip-rule="evenodd" d="M68.8616 41.8308L70.1506 50.0873L72.3823 34.6888C72.3823 34.6888 68.8616 41.7326 68.8616 41.8308Z" fill="#919031"/>
<path fill-rule="evenodd" clip-rule="evenodd" d="M64.4094 41.46L63.728 49.2834L61.1248 33.5231C61.1248 33.5231 64.4094 41.3594 64.4094 41.46Z" fill="#919031"/>
<path d="M91.0323 84.928C91.7299 84.928 92.4049 84.7787 93.0539 84.4777L91.1207 82.5495L93.2972 80.373L95.2271 82.3045C95.5386 81.6547 95.6927 80.9798 95.6927 80.287C95.6927 79.0004 95.2271 77.8963 94.3007 76.9788C93.41 76.0792 92.3197 75.6135 91.0323 75.5827C89.7522 75.6135 88.6465 76.0792 87.725 76.9788C86.8083 77.8963 86.3475 79.0004 86.3475 80.287C86.3475 81.5687 86.8083 82.6752 87.725 83.5935C88.6465 84.481 89.7522 84.928 91.0323 84.928ZM98.7819 80.287C98.7819 81.8526 98.3665 83.2739 97.5358 84.5507L98.7819 85.8568L96.6029 88.0779L95.3163 86.7848C94.0289 87.6455 92.6028 88.0779 91.0323 88.0779C88.8874 88.0779 87.0468 87.3113 85.5063 85.7676C84.0007 84.2611 83.243 82.431 83.243 80.287C83.243 78.1389 84.0007 76.3136 85.5063 74.8023C87.0468 73.2651 88.8874 72.4936 91.0323 72.4936C93.1918 72.4936 95.0194 73.2651 96.5194 74.8023C98.0291 76.3136 98.7819 78.1389 98.7819 80.287Z" fill="white"/>
<path d="M54.2162 82.8999L52.7876 78.9282L51.2244 82.8999H54.2162ZM58.9423 87.8889H56.0511L55.3592 85.6597H50.1966L49.4957 87.8889H46.6013L52.7876 72.0036L58.9423 87.8889Z" fill="white"/>
<path d="M39.1539 78.6711H39.8962C40.8112 78.6711 41.4383 78.5551 41.7815 78.3304C42.1197 78.1008 42.2909 77.7066 42.2909 77.1468C42.2909 76.5652 42.1335 76.1612 41.8123 75.9235C41.4959 75.6907 40.8753 75.5739 39.9522 75.5739H39.1539V78.6711ZM35.7127 87.9036V72.5156H39.4427C40.9767 72.5156 42.0459 72.5756 42.6584 72.6867C43.2676 72.7946 43.79 72.9893 44.2305 73.2619C44.731 73.5791 45.1139 74.0001 45.3784 74.5298C45.6404 75.0604 45.7702 75.6688 45.7702 76.3656C45.7702 77.2385 45.5739 77.9361 45.1813 78.4521C44.7886 78.9656 44.1616 79.3574 43.2984 79.6251C44.2614 79.7087 45.0198 80.0907 45.5617 80.7738C46.1069 81.4584 46.3778 82.3694 46.3778 83.5116C46.3778 84.3326 46.2277 85.053 45.9203 85.676C45.6145 86.2998 45.1748 86.7849 44.6086 87.1256C44.1445 87.4047 43.5718 87.6059 42.8936 87.7243C42.2122 87.8435 41.1 87.9036 39.553 87.9036H35.7127ZM39.1539 84.7617H40.4535C41.332 84.7617 41.9526 84.6352 42.3169 84.3894C42.6803 84.1371 42.862 83.7226 42.862 83.1409C42.862 82.4944 42.6933 82.0474 42.3615 81.7878C42.0281 81.5323 41.4091 81.4025 40.5111 81.4025H39.1539V84.7617Z" fill="white"/>
<path d="M62.0788 87.8829L62.0925 79.6044H58.9864V77.0491H62.0925L62.0788 72.49H65.2993L65.3123 77.0491H68.2043V79.5898H65.3123L65.2993 87.8829H62.0788Z" fill="#919031"/>
<path d="M81.7113 72.522V81.7975C81.7113 82.8269 81.4744 83.8572 81.0071 84.8882C80.0093 86.9592 78.3139 87.9952 75.9127 87.9952C73.4944 87.9952 71.8039 86.9592 70.8361 84.8882C70.3388 83.8572 70.0898 82.8269 70.0898 81.7975V72.522H72.9955V81.7975C72.9955 82.3296 73.1188 82.8431 73.3768 83.3453C73.8473 84.3747 74.6918 84.8882 75.9127 84.8882C77.1206 84.8882 77.9675 84.3747 78.4656 83.3453C78.6943 82.8431 78.8047 82.3296 78.8047 81.7975V72.522H81.7113Z" fill="white"/>
</g>
</svg>
